<svg width="140" height="140" viewBox="0 0 140 140" fill="none" xmlns="http://www.w3.org/2000/svg">
<g filter="url(#filter0_i_0_1348)">
<rect width="140" height="140" rx="15" fill="#F2B137"/>
</g>
<path fill-rule="evenodd" clip-rule="evenodd" d="M102 70C102 52.3269 87.6731 38 70 38C52.3269 38 38 52.3269 38 70C38 87.6731 52.3269 102 70 102C87.6731 102 102 87.6731 102 70ZM56.963 70C56.963 62.7998 62.7998 56.963 70 56.963C77.2002 56.963 83.037 62.7998 83.037 70C83.037 77.2002 77.2002 83.037 70 83.037C62.7998 83.037 56.963 77.2002 56.963 70Z" fill="#1F3641"/>
<defs>
<filter id="filter0_i_0_1348" x="0" y="0" width="140" height="140" filterUnits="userSpaceOnUse" color-interpolation-filters="sRGB">
<feFlood flood-opacity="0" result="BackgroundImageFix"/>
<feBlend mode="normal" in="SourceGraphic" in2="BackgroundImageFix" result="shape"/>
<feColorMatrix in="SourceAlpha" type="matrix" values="0 0 0 0 0 0 0 0 0 0 0 0 0 0 0 0 0 0 127 0" result="hardAlpha"/>
<feOffset dy="-8"/>
<feComposite in2="hardAlpha" operator="arithmetic" k2="-1" k3="1"/>
<feColorMatrix type="matrix" values="0 0 0 0 0.8 0 0 0 0 0.545098 0 0 0 0 0.0745098 0 0 0 1 0"/>
<feBlend mode="normal" in2="shape" result="effect1_innerShadow_0_1348"/>
</filter>
</defs>
</svg>
