<svg width="140" height="140" viewBox="0 0 140 140" fill="none" xmlns="http://www.w3.org/2000/svg">
<g filter="url(#filter0_i_0_1224)">
<rect width="140" height="140" rx="15" fill="#31C3BD"/>
</g>
<path fill-rule="evenodd" clip-rule="evenodd" d="M91.2406 39.1474C90.0691 37.9758 88.1696 37.9759 86.998 39.1474L70 56.1454L53.002 39.1474C51.8304 37.9758 49.9309 37.9759 48.7594 39.1474L39.1474 48.7594C37.9759 49.9309 37.9759 51.8304 39.1474 53.002L56.1454 70L39.1474 86.998C37.9758 88.1696 37.9759 90.0691 39.1474 91.2406L48.7594 100.853C49.9309 102.024 51.8304 102.024 53.002 100.853L70 83.8546L86.998 100.853C88.1696 102.024 90.0691 102.024 91.2406 100.853L100.853 91.2406C102.024 90.0691 102.024 88.1696 100.853 86.998L83.8546 70L100.853 53.002C102.024 51.8304 102.024 49.9309 100.853 48.7594L91.2406 39.1474Z" fill="#1F3641"/>
<defs>
<filter id="filter0_i_0_1224" x="0" y="0" width="140" height="140" filterUnits="userSpaceOnUse" color-interpolation-filters="sRGB">
<feFlood flood-opacity="0" result="BackgroundImageFix"/>
<feBlend mode="normal" in="SourceGraphic" in2="BackgroundImageFix" result="shape"/>
<feColorMatrix in="SourceAlpha" type="matrix" values="0 0 0 0 0 0 0 0 0 0 0 0 0 0 0 0 0 0 127 0" result="hardAlpha"/>
<feOffset dy="-8"/>
<feComposite in2="hardAlpha" operator="arithmetic" k2="-1" k3="1"/>
<feColorMatrix type="matrix" values="0 0 0 0 0.0666667 0 0 0 0 0.54902 0 0 0 0 0.529412 0 0 0 1 0"/>
<feBlend mode="normal" in2="shape" result="effect1_innerShadow_0_1224"/>
</filter>
</defs>
</svg>
