<svg xmlns="http://www.w3.org/2000/svg" width="11" height="17" viewBox="0 0 11 17" fill="none">
<path fill-rule="evenodd" clip-rule="evenodd" d="M6.0161 16.328V14.864C7.2481 14.784 8.2361 14.42 8.9801 13.772C9.7241 13.124 10.0961 12.264 10.0961 11.192V11.048C10.0961 10.056 9.7481 9.276 9.0521 8.708C8.3561 8.14 7.3441 7.776 6.0161 7.616V4.184C6.5761 4.328 7.0281 4.584 7.3721 4.952C7.7161 5.32 7.8881 5.768 7.8881 6.296V6.584H9.7121V6.152C9.7121 5.704 9.6241 5.276 9.4481 4.868C9.2721 4.46 9.0241 4.088 8.7041 3.752C8.3841 3.416 7.9961 3.132 7.5401 2.9C7.0841 2.668 6.5761 2.504 6.0161 2.408V0.872002H4.2881V2.36C3.7921 2.408 3.3201 2.516 2.8721 2.684C2.4241 2.852 2.0321 3.076 1.6961 3.356C1.3601 3.636 1.0921 3.972 0.892103 4.364C0.692104 4.756 0.592104 5.208 0.592104 5.72V5.864C0.592104 6.824 0.908104 7.572 1.5401 8.108C2.1721 8.644 3.0881 8.992 4.2881 9.152V13.064C3.5841 12.904 3.0401 12.592 2.6561 12.128C2.2721 11.664 2.0801 11.048 2.0801 10.28V9.992H0.256104V10.568C0.256104 11.032 0.336104 11.492 0.496104 11.948C0.656103 12.404 0.900104 12.828 1.2281 13.22C1.5561 13.612 1.9721 13.948 2.4761 14.228C2.9801 14.508 3.5841 14.704 4.2881 14.816V16.328H6.0161ZM4.2881 7.424C3.6001 7.296 3.1241 7.092 2.8601 6.812C2.5961 6.532 2.4641 6.168 2.4641 5.72C2.4641 5.256 2.6401 4.888 2.9921 4.616C3.3441 4.344 3.7761 4.168 4.2881 4.088V7.424ZM6.0161 9.344V13.136C6.7041 13.056 7.2441 12.848 7.6361 12.512C8.0281 12.176 8.2241 11.736 8.2241 11.192C8.2241 10.632 8.0481 10.216 7.6961 9.944C7.3441 9.672 6.7841 9.472 6.0161 9.344Z" fill="#9EBBBD"/>
</svg>
